<svg width="102" height="107" viewBox="0 0 102 107" fill="none" xmlns="http://www.w3.org/2000/svg">
<path d="M6.41822 2.49999C19.1373 7.39196 30.8992 21.3779 45.4501 41.1797C46.0129 41.9455 45.959 43.0051 45.3197 43.7084L37.3863 52.4351C36.9174 52.951 36.0734 52.8324 35.7508 52.2143C24.3932 30.4521 16.5494 21.4685 1.41822 9.49999C-2.08178 6 1.39557 0.611499 6.41822 2.49999Z" fill="#1597C8"/>
<circle cx="47.9182" cy="15" r="15" fill="#1597C8"/>
<path d="M92.9182 3.5C75.1468 8.9283 12.0429 78.3308 9.43271 100.999C9.24079 102.666 9.66937 104.407 10.924 105.521C13.0263 107.387 15.8428 106.969 17.4182 105C19.3637 102.568 32.1444 75.9996 48.0708 60.7553C48.9561 59.9079 49.9118 59.0354 51.1148 58.8012C51.8415 58.6597 52.6367 58.7314 53.7339 59.0739C54.533 59.3234 55.1416 59.601 55.7624 60.1625C56.8825 61.1758 57.523 62.7906 57.8111 64.2733C60.6733 79.0044 73.8869 101.131 83.4182 104.5C88.8156 106.84 90.9182 102 89.4182 99.5C55.1206 55.3947 64.4398 35.6864 98.653 10.5088C100.406 9.21849 101.976 7.23085 101.484 5.10999C101.172 3.76239 100.218 2.98081 98.1064 2.6649C96.3473 2.40172 94.5697 2.8394 92.9182 3.5Z" fill="#1597C8"/>
</svg>
